<?xml version="1.0" encoding="utf-8"?>
<!-- Generator: Adobe Illustrator 23.0.2, SVG Export Plug-In . SVG Version: 6.00 Build 0)  -->
<svg version="1.1" xmlns="http://www.w3.org/2000/svg" xmlns:xlink="http://www.w3.org/1999/xlink" x="0px" y="0px"
	viewBox="0 0 2000 1115" style="enable-background:new 0 0 2000 1115;" xml:space="preserve" fill="#ffe1c8">
	<g id="logo_N">
		<polygon points="1945.3,53.2 1724.6,53.2 1506.4,854 1444,854 1444,854 1603.6,268.6 1603.6,268.6 1662.8,53.4 1159.3,53.3 
                1100.7,266.6 1100.7,266.6 882,1069 1102.6,1069 1320.9,268.6 1320.9,268.6 1382.9,268.6 1223,855.2 1223.1,855 1223.1,855 
                1164.2,1069.2 1384.9,1069.2 1667.7,1069.2 1726.4,855.6 1726.5,855.6 	" />
	</g>
	<g id="logo_M">
		<polygon points="1101.6,53.4 328.2,53.3 269.5,266.6 269.5,266.6 269,268.5 269,268.6 269,268.6 50.8,1069 271.4,1069 489.7,268.6 
                489.7,268.6 543.4,268.6 325.3,1069 545.9,1069 764.2,268.6 821.9,268.6 822.3,268.6 604.1,1069 824.7,1069 1043.6,266.6 
                1043.5,266.6 	" />
	</g>
</svg>