<svg xmlns="http://www.w3.org/2000/svg" width="1164.035" height="1066.323"><defs><filter id="a" x="0" y="0" width="1032.323" height="1032.323" filterUnits="userSpaceOnUse"><feOffset/><feGaussianBlur stdDeviation="25" result="blur"/><feFlood flood-opacity=".251"/><feComposite operator="in" in2="blur"/><feComposite in="SourceGraphic"/></filter><filter id="b" x="274.958" y="153.068" width="889.077" height="913.256" filterUnits="userSpaceOnUse"><feOffset/><feGaussianBlur stdDeviation="25" result="blur-2"/><feFlood flood-opacity=".251"/><feComposite operator="in" in2="blur-2"/><feComposite in="SourceGraphic"/></filter><filter id="c" x="244.664" y="171.568" width="717" height="746.087" filterUnits="userSpaceOnUse"><feOffset/><feGaussianBlur stdDeviation="12.5" result="blur-3"/><feFlood flood-opacity=".749"/><feComposite operator="in" in2="blur-3"/><feComposite in="SourceGraphic"/></filter></defs><g filter="url(#a)"><g data-name="Tracé 3" fill="none" stroke-dasharray="25"><path d="M299.854 299.853c128.342-222.414 312.264-119.125 431.39.002s191.504 342.019 0 431.387-339.334 73.243-431.388.001c-58.461-58.46-128.344-208.976-.002-431.39z"/><path d="M353.9 227.494l.107-.107.087-.087.081-.081.092-.092.1-.099.084-.084.084-.083.09-.09.1-.099.086-.085.082-.081.09-.09.099-.097.088-.087.083-.081.093-.092.096-.095.085-.083.082-.081.1-.097.095-.094.084-.083.084-.081.102-.1.09-.088.084-.082.082-.08.107-.104.09-.088.084-.08.082-.08c.038-.037.085-.082.122-.12l.077-.073.08-.077.08-.078.124-.12.078-.075.078-.075.081-.078.019-.018.117-.112.012-.013.08-.077.079-.075.055-.052.006-.006.126-.121.015-.014.077-.074a59.454 59.454 0 01.344-.329l.075-.071.015-.014.275-.261.006-.006.072-.068.285-.27.001-.001a237.61 237.61 0 0110.88-9.675l.006-.006.069-.057.003-.003.21-.175.01-.007.06-.05.018-.016.058-.048.023-.02.187-.154.02-.018.05-.04.036-.03a19.49 19.49 0 01.083-.069l.043-.036.053-.043a30.273 30.273 0 01.142-.117l.05-.042.034-.028.059-.048.023-.02.085-.069.01-.008.074-.061.023-.02a38.966 38.966 0 01.086-.07c.327-.268.646-.528.974-.794l6.3 7.766c-6.013 4.877-11.992 10.28-17.77 16.058l-7.072-7.07zm38.845-31.329c7.263-4.565 14.596-8.504 21.984-11.856l4.131 9.106c-7.032 3.19-14.029 6.965-20.794 11.217l-5.321-8.467zm45.415-20.512l.006-.002.09-.026a169.02 169.02 0 0112.093-3.001l.007-.002.09-.018.005-.002.088-.018.01-.002.088-.018.005-.001.088-.019.01-.002.086-.018.01-.002c.027-.005.055-.01.083-.017l.014-.003.083-.017.011-.002.083-.017.015-.003.082-.017.012-.002.084-.017.012-.003.086-.017.007-.002.085-.017.015-.003.08-.016.015-.003.081-.016.016-.004.08-.016.016-.003.078-.015.02-.004.077-.016.016-.003.08-.016.016-.003.08-.016.014-.003.082-.016.016-.003.08-.016.014-.003.081-.016.017-.003.08-.015.013-.003.081-.016.019-.004.078-.015.013-.002.083-.016.013-.003.086-.016h.002l.093-.019h.005l.09-.018.004-.001.09-.017.012-.003.085-.016.008-.001.087-.017.01-.002a170.737 170.737 0 019.184-1.488l1.332 9.91a160.341 160.341 0 00-23.004 4.83l-2.77-9.61zm49.373-6.686c8.302.06 16.614.677 24.917 1.805l-1.346 9.909c-7.969-1.082-15.923-1.66-23.643-1.715l.072-10zm49.443 6.583a246.314 246.314 0 018.65 2.351l.088.026.009.003.083.024.02.006c.031.01.047.014.08.023a1.972 1.972 0 00.093.028l.02.006.074.021a6.942 6.942 0 00.09.027l.035.01.064.019.028.008.066.02.034.01.056.016.04.012.05.015.049.014.048.014.044.013.051.015.048.014.042.013.051.015.044.013.053.016.037.011.057.017.028.008a239.411 239.411 0 01.35.105l.089.026c.008.003-.005 0 .003.001l.085.026.01.003.09.027h.002l.08.025.017.005.176.053.01.003.09.027.086.026.013.004.083.025.009.003.084.025.01.003c.028.01.057.018.086.026l.006.002c.029.01.057.018.086.026l.01.003.087.027h.001l.093.029a269.225 269.225 0 0112.111 4.017l-3.37 9.415c-7.715-2.76-15.445-5.124-22.975-7.024l2.446-9.696zm47.055 16.716c.5.227 1.01.46 1.51.69h.002a357.77 357.77 0 01.368.17l.013.006.089.041.05.023a479.82 479.82 0 01.567.263l.078.037.1.046.064.03.12.055.058.028.123.057.055.026.13.06.045.021.132.062.042.02a247.927 247.927 0 01.302.142l.033.015a440.062 440.062 0 01.322.152l.037.017.145.068.029.014.15.071.024.011.159.075.006.004.163.077.011.005.164.077.014.007.16.076.018.009.16.076.015.007.165.079.008.003.871.417.002.001.175.084c1.46.702 2.917 1.416 4.373 2.14.008.005-.002 0 .006.004l.166.083.013.006.164.082.01.005.168.084.002.001.343.172.008.004.163.082.014.007.158.079.022.011.153.077.025.013.15.076.028.013.153.078a12.147 12.147 0 01.169.085l.013.007.154.077.026.014a424.904 424.904 0 01.674.342l.044.023a256.423 256.423 0 01.18.091l.107.055.06.03.112.058.057.029.12.061a263.861 263.861 0 00.513.263l.092.047.07.037a376.715 376.715 0 01.501.258l.028.014a350.728 350.728 0 01.46.239l.022.01a474.453 474.453 0 01.362.189 374.459 374.459 0 015.805 3.083l-4.767 8.79a344.938 344.938 0 00-21.734-10.836l4.134-9.105zm43.958 23.75a448.577 448.577 0 016.565 4.18l.002.001.482.313.011.007.145.094.028.019.134.087.038.025.127.083.045.029.103.067.06.04.098.064.06.039.106.069.063.04.105.07.069.045.073.048a258.94 258.94 0 01.465.305l.027.018.267.175.01.007.168.11.014.01c2.936 1.933 5.848 3.898 8.752 5.905l.004.002.446.309.012.008a498.792 498.792 0 01.313.217l.067.046.087.061.085.059.06.041.11.077.053.037.12.084.038.025a560.336 560.336 0 01.618.431l.003.003.802.56-5.74 8.19a459.194 459.194 0 00-20.391-13.517l5.296-8.482zm40.955 28.648a593.49 593.49 0 0119.44 15.717l-6.447 7.645a583.697 583.697 0 00-19.112-15.453l6.12-7.91zm38.233 32.201a690.414 690.414 0 015.823 5.367l.027.025a656.488 656.488 0 01.318.297l.056.052a696.863 696.863 0 01.25.234l.036.033.11.103.028.026.107.1a693.387 693.387 0 01.293.275l.024.021.125.118.015.014a718.223 718.223 0 0110.966 10.5l-6.992 7.15a698.08 698.08 0 00-17.92-16.923l6.734-7.392zm28.285 41.823l7.354-6.776a423.15 423.15 0 017.196 8.011l.018.021.118.136.023.026.112.128.027.031a358.346 358.346 0 01.138.158l.062.07.04.047a550.404 550.404 0 01.409.469l.053.06a422.341 422.341 0 01.213.246l.048.055a549.277 549.277 0 01.205.237l.034.04.099.113a420.334 420.334 0 01.268.31l.018.02.111.13.005.005.116.134.016.02.116.134.011.013.12.139.007.009a434.753 434.753 0 016.81 8.11l-7.736 6.337a421 421 0 00-16.011-18.433zm30.953 37.764l8.081-5.89c.65.89 1.296 1.785 1.94 2.681l.002.004.112.156.108.15.009.012.096.135.027.037a446.014 446.014 0 01.197.276l.047.065a326.484 326.484 0 01.126.177l.037.052.182.255.008.012.12.168.005.008a446.907 446.907 0 018.726 12.722l.005.008a391.835 391.835 0 01.524.795l.036.055a586.704 586.704 0 01.322.49l.059.09.057.087.034.052a478.358 478.358 0 01.192.294l.028.043.077.117.027.04.079.122.021.033.088.135.023.034.09.14.014.021.203.312.003.004.103.16.005.006.104.16.001.003.318.491-8.397 5.43a439.063 439.063 0 00-13.839-20.142zm26.52 41.024l8.692-4.946a425.403 425.403 0 0111.723 22.078l-8.967 4.426a416.982 416.982 0 00-11.447-21.558zm21.56 43.737l9.225-3.86a379.64 379.64 0 015.544 14.018v.002l.27.727.003.006.066.179.001.003.2.542.003.008.063.172.006.016.062.168.006.018.063.17.002.006.062.17.005.014.06.163.01.027.057.159.01.028.058.157.01.03.057.155.004.01.056.155.014.04a333.402 333.402 0 01.12.33l.02.056a300.369 300.369 0 01.108.3l.02.056.045.125.021.059.047.13.022.063.046.128.023.062a419.592 419.592 0 01.1.282l.029.08.037.105.027.075.041.116.029.08.027.076a254.664 254.664 0 01.184.52l.016.044.104.295.008.024.064.181.005.013c.355 1.011.702 2.01 1.048 3.022l-9.463 3.234a364.967 364.967 0 00-8.645-22.739zm15.66 45.964l9.673-2.531.014.052.024.092a372.834 372.834 0 01.051.196l.017.063.035.136.015.058a324.553 324.553 0 01.088.339l.011.043.04.154.01.036.036.143.009.035.04.153.01.038.039.156.01.038.04.158.009.034a295.523 295.523 0 01.09.356l.006.023.045.175.046.181.003.014.044.173.005.023.042.166.007.029.042.167.006.023.043.173.004.014.092.368.001.006.045.182.003.01.044.18.004.014.044.18.003.01.044.181.003.01.138.563v.005a325.54 325.54 0 01.092.372l.003.016c.015.058.03.118.043.177l.004.014.044.181c.002.009-.002-.006 0 .003l.046.188v.001l.044.182.003.013.042.175.004.02.042.172.005.021a293.64 293.64 0 01.087.368l.002.007.087.368.003.013a334.054 334.054 0 01.086.364l.006.027.04.166.005.026a312.957 312.957 0 01.083.356l.007.027.036.155.006.028.037.158.009.04.036.154.01.04c.01.05.022.1.034.15l.01.049.035.15.01.04a342.243 342.243 0 01.073.323l.013.054.03.131.013.059.031.136.013.06a255.734 255.734 0 01.075.33l.015.064a576.01 576.01 0 01.349 1.568l.008.039.038.171.006.027.11.507.004.018c.014.06.028.125.04.186l.005.021c.014.06.028.126.04.187l.004.013a297.741 297.741 0 012.186 11.146l-9.848 1.735a297.818 297.818 0 00-5.182-23.615zm8.291 47.49l9.966-.826c.695 8.384.972 16.72.8 24.976l-9.997-.208c.162-7.787-.097-15.842-.769-23.942zm-1.085 47.69l9.905 1.37a195.27 195.27 0 01-3.447 18.436l-.001.005a187.666 187.666 0 01-.625 2.548l-.001.004-.02.081-.005.015-.019.075-.005.02-.016.066-.008.03-.014.056-.01.041-.012.045-.014.052-.01.042-.014.053-.01.043-.014.052-.012.046-.012.048-.012.046-.013.05-.013.049-.011.045-.013.047-.012.05-.012.044-.013.051-.01.04-.015.056-.01.04-.015.055-.01.04-.015.056-.01.038-.015.058a281.38 281.38 0 01-.025.095l-.01.037-.015.058-.009.036-.016.06-.009.034-.016.063-.008.03-.018.066-.008.03-.017.064-.008.031-.017.064-.008.032-.017.063-.009.032-.016.063-.01.033-.016.062a36.122 36.122 0 01-.052.196l-.006.022-.02.073-.006.023-.02.072-.006.022-.02.073-.005.023-.02.073-.006.021-.02.073-.006.024-.02.073-.006.02-.02.078-.005.016-.023.083c0 .004-.002.007-.003.01l-.007.027-9.646-2.637c2.043-7.473 3.635-15.282 4.732-23.211zm-12.508 45.474l9.184 3.956-.014.032-.008.018-.031.073-.007.017-.032.074-.008.017-.032.075-.007.016-.031.072-.01.022-.03.068-.008.021a135.05 135.05 0 01-.071.162l-.008.019-.03.069-.01.024-.03.066-.01.024-.03.069-.01.02-.032.075-.006.014-.034.077-.006.015a118.263 118.263 0 01-.482 1.087l-.006.012-.035.079-.003.008-.037.082-.006.012a114.175 114.175 0 01-.075.167l-.008.019-.033.073-.006.013a111.94 111.94 0 01-.075.167l-.008.017-.032.07-.011.025-.03.066-.01.024-.03.065-.012.026-.03.066-.01.023-.03.065-.013.028-.027.06-.014.03c-.007.016-.02.046-.028.06l-.013.03-.028.06-.014.031a126.839 126.839 0 01-.083.182l-.024.053-.017.035a132.726 132.726 0 01-.065.143l-.018.037-.025.055-.015.033-.027.06-.014.03-.028.06-.014.03-.026.055-.016.035-.026.055-.016.034-.025.055-.016.035-.025.053-.017.037-.024.05-.018.04-.027.058-.014.03-.034.073-.008.015-.03.065-.012.026-.024.051-.031.066-.029.061-.014.031-.028.058a81.782 81.782 0 01-.042.09l-.017.036-.025.053a217.403 217.403 0 01-.042.09l-.017.035-.025.053-.02.04-.022.049-.02.043-.022.044a100.2 100.2 0 01-.023.049l-.02.04c-.006.016-.014.032-.022.048l-.02.04-.023.05-.019.04-.023.05-.018.037-.027.056-.015.032-.026.053-.017.037-.026.054-.016.033-.028.057-.013.029-.03.063-.013.025-.028.059-.016.032-.028.058-.014.03-.028.058-.014.03-.03.06-.012.026-.03.06-.014.031-.029.059-.013.026a191.995 191.995 0 01-.041.086l-.033.067-.01.02-.032.067-.01.021-.035.07-.006.013-.037.075-.005.011-.038.078-.003.005c-.013.027-.026.055-.04.081l-.004.01a174.229 174.229 0 01-1.038 2.081l-.003.005a172.197 172.197 0 01-6.896 12.318l-8.518-5.239a163.264 163.264 0 0010.843-20.885zm-24.59 40.01l7.687 6.397a182.753 182.753 0 01-8.624 9.643l-.003.002a195.708 195.708 0 01-.546.567l-.006.006-.18.186-.01.01a190.844 190.844 0 01-.27.277v.001a166.706 166.706 0 01-.36.368l-.016.016a188.3 188.3 0 01-3.535 3.511l-.1.098a193.854 193.854 0 01-3.6 3.39l-6.764-7.366a182.555 182.555 0 005.62-5.383 174.631 174.631 0 0010.707-11.723zm-54.975 44.935c7.085-4.016 13.874-8.342 20.176-12.86l5.825 8.129c-6.555 4.698-13.573 9.181-21.07 13.43l-4.93-8.699zm-44.138 20.945a819.632 819.632 0 0022.573-10.013l4.19 9.08-.013.006-.14.064-.086.04-.09.041-.089.042-.063.029-.099.045-.044.02-.376.174-.016.007c-.046.021-.085.04-.132.06l-.006.003a826.901 826.901 0 01-21.694 9.604l-3.915-9.202zm-45.987 17.81a706.804 706.804 0 0023.13-8.514l3.614 9.324a726.848 726.848 0 01-15.266 5.725l-.165.06-.036.012-.334.121-.037.014a395.8 395.8 0 01-.176.063l-.16.058-.038.013a322.422 322.422 0 01-.19.069l-.084.03-.102.037-.117.042-.093.034-.053.019-.109.039-.025.009c-2.154.773-4.33 1.543-6.471 2.289l-3.288-9.444zm-47.055 14.397a604.462 604.462 0 0023.649-6.732l2.93 9.56a621.677 621.677 0 01-17.031 4.959l-.033.009a608.917 608.917 0 01-.383.105l-.163.045-.07.02-.09.023c-.021.007-.045.013-.067.019l-.09.025-.092.025-.122.033-.082.023-.073.02-.147.04-.05.013-.125.035-.041.01-.164.046-.029.007-.146.04-.033.009-.172.047h-.004l-.17.047-.023.006c-1.55.42-3.097.833-4.64 1.238l-2.539-9.672zm-47.96 10.325a512.688 512.688 0 0024.082-4.608l2.111 9.775a58.39 58.39 0 01-.22.047l-.136.03-.057.012c-.052.01-.106.022-.159.034l-.036.008-.142.03-.042.009-.165.035-.034.008-.358.076-.022.005-.18.038-.011.003-.38.08h-.003l-.386.083a526.212 526.212 0 01-15.951 3.116l-.015.003-.364.065-.016.003-.18.032-.008.002-.178.031-.01.002-.177.032-.024.004-.355.062-.024.005-.177.031c-.01.002.005-.001-.005 0l-.168.03-.028.005a551.75 551.75 0 01-.199.035l-.163.029-.011.002-.172.03-.033.006-.168.029-.019.003c-.052.01-.105.018-.157.027l-.03.006-.166.029-.034.005-.144.025-.034.006-.16.028-.045.008-.162.028-.012.002-.157.027-.04.006-.16.028-.04.007-.13.022-.049.008-.15.026-.055.01-.123.02-.066.012-.123.02-.063.011-.137.024-.07.012a150.323 150.323 0 01-.166.027l-.142.025-.067.01-.1.018-.087.014-.11.019-.077.013-.107.018c-.03.005-.067.01-.097.016l-.09.015-.077.013-.133.022-.079.013-.074.013-.062.01-1.641-9.865zm-48.59 5.474a434.991 434.991 0 0024.347-2.076l1.126 9.936a442.913 442.913 0 01-24.909 2.124l-.564-9.984zm-48.686-.275c7.948.567 16.128.875 24.315.914l-.049 10c-.618-.003-1.223-.007-1.84-.013h-.008l-.094-.001h-.015l-.08-.001h-.032a43.403 43.403 0 01-.103-.001l-.073-.001h-.034l-.204-.003h-.048l-.056-.001h-.049l-.053-.001h-.054a77.96 77.96 0 01-.111-.002h-.035l-.07-.001h-.033l-.069-.002h-.031l-.07-.001h-.032l-.078-.001h-.01a378.527 378.527 0 01-15.145-.502l-.018-.001-.07-.004-.03-.002-.06-.003-.045-.002-.046-.003-.061-.003-.032-.002-.077-.004-.022-.001a45.266 45.266 0 00-.079-.005h-.025l-.094-.006a365.216 365.216 0 01-5.892-.373l.712-9.974zm-47.967-6.947a315.645 315.645 0 0023.83 4.363l-1.425 9.898a324.11 324.11 0 01-24.588-4.503l2.183-9.758zm-46.05-14.4a278.74 278.74 0 0022.697 8.168l-2.978 9.546-1.383-.435-.006-.002-.083-.026-.007-.002a43.549 43.549 0 00-.162-.052l-.026-.008-.064-.02-.027-.01-.06-.019-.033-.01a23.789 23.789 0 01-.147-.047l-.04-.013-.052-.016-.043-.014-.045-.014-.055-.018-.036-.012a295.2 295.2 0 01-.37-.118l-.005-.002-.18-.058-.014-.005-.08-.025-.013-.005-.076-.024-.022-.007-.076-.025-.01-.003c-.027-.01-.053-.018-.08-.026l-.016-.006-.083-.026-.005-.002-.087-.028-.007-.003a286.493 286.493 0 01-20.122-7.38l3.795-9.253zm-42.64-22.227a257.866 257.866 0 0020.793 12.092l-4.619 8.87a2.054 2.054 0 01-.018-.01l-.04-.02-.04-.022-.042-.021-.045-.024-.029-.015-.052-.027h-.001l-.13-.069a6.705 6.705 0 00-.082-.043l-.029-.015-.056-.03-.025-.012-.064-.033a.991.991 0 00-.011-.007l-.071-.037-.007-.003a266.659 266.659 0 01-20.86-12.176l5.428-8.398zm-42.374-24.774l7.868-6.172c4.803 6.122 9.83 11.83 14.948 16.97l.014-.017-.014.018.268.268-2.297 2.298 2.297-2.298-6.457 7.558 2.288-3.389 1.872-1.871-4.774 4.773-.055-.055-.015-.015-.046-.046-.01-.01-.055-.055-.014-.014-.043-.044-.014-.013-.054-.055-.012-.011-.047-.048-.012-.012-.056-.056a.711.711 0 00-.008-.008l-.046-.047-.017-.017-.054-.054-.003-.003-.054-.054-.013-.013a135.486 135.486 0 01-.127-.13l-.044-.044-.011-.011-.055-.055a2.15 2.15 0 01-.014-.014l-.044-.046a1.831 1.831 0 00-.013-.013l-.053-.053-.017-.017-.04-.042-.018-.017-.051-.053-.014-.014-.042-.042a3.701 3.701 0 01-.065-.066l-.013-.014-.047-.048-.02-.02-.043-.045-.01-.01-.054-.055-.017-.017-.038-.039-.02-.02a28.024 28.024 0 01-.05-.052l-.019-.019a15.483 15.483 0 01-.037-.038l-.02-.02-.05-.051-.018-.02-.037-.038a4.872 4.872 0 01-.092-.094l-.03-.031a7.956 7.956 0 00-.027-.028l-.031-.032-.038-.038-.031-.033-.028-.029a9.817 9.817 0 01-.051-.053c-.017-.016-.032-.032-.048-.05l-.026-.025-.03-.032-.024-.024a27.603 27.603 0 00-.049-.05l-.021-.023-.032-.033-.025-.026-.036-.037-.033-.034-.034-.035-.024-.025-.03-.032-.043-.044-.026-.027-.027-.03-.031-.03-.026-.028-.045-.046-.024-.026a11.899 11.899 0 00-.032-.033l-.021-.022-.05-.053a4.545 4.545 0 01-.02-.02l-.035-.036-.024-.026-.048-.05-.023-.025-.027-.028-.03-.032-.022-.022-.05-.053-.026-.027-.03-.031-.022-.024-.054-.056-.018-.02-.033-.033a5.873 5.873 0 01-.022-.024l-.05-.052a6.593 6.593 0 00-.024-.026l-.03-.031a6.852 6.852 0 01-.024-.026l-.028-.029a7.019 7.019 0 01-.078-.083l-.019-.019-.033-.035-.014-.015-.062-.065-.018-.02-.032-.034a3.908 3.908 0 00-.018-.019l-.061-.065-.016-.017-.035-.037a1.701 1.701 0 01-.012-.012c-.036-.039-.08-.084-.115-.123a2.314 2.314 0 00-.014-.014l-.114-.121-.015-.017-.035-.036a2.66 2.66 0 01-.015-.017l-.063-.067-.015-.016a15.62 15.62 0 00-.036-.039l-.009-.01-.074-.078-.007-.007-.037-.04a59.35 59.35 0 01-.085-.09l-.007-.008-.037-.04-.011-.013-.116-.124-.014-.015-.118-.126-.008-.01-.038-.04-.011-.012-.073-.079-.006-.006-.04-.044-.003-.002-.125-.136-.007-.008-.121-.13-.008-.01-.121-.13-.008-.009-.125-.135-.002-.003-.042-.046-.002-.002a206.076 206.076 0 01-8.214-9.518l-.003-.004a245.623 245.623 0 01-.13-.16l-.124-.154-.005-.006-.127-.157-.001-.001-.042-.052a.129.129 0 01-.003-.004l-.082-.101a.155.155 0 00-.003-.004l-.041-.051-.005-.006-.122-.152-.01-.012-.119-.148-.01-.013-.115-.144-.015-.018-.114-.143c-.005-.006-.01-.011-.013-.017l-.035-.043-.016-.02a69.336 69.336 0 01-.068-.085l-.009-.011-.036-.046-.013-.016-.07-.088-.009-.011-.032-.04-.023-.03-.03-.036c-.015-.02-.03-.04-.047-.06a6.935 6.935 0 01-.021-.027l-.032-.04-.025-.032-.04-.05-.03-.037-.033-.042-.023-.03-.04-.05-.024-.03-.039-.05-.023-.029-.04-.05-.014-.018a40.56 40.56 0 01-.051-.065l-.02-.025-.04-.05-.014-.02-.054-.067a3.452 3.452 0 00-.015-.02l-.045-.056a50.132 50.132 0 01-.069-.087l-.005-.008-.05-.064a2.693 2.693 0 01-.014-.017l-.057-.072zm-26.519-42.291l8.956-4.448a246.899 246.899 0 0011.708 20.967l-8.48 5.3a251.622 251.622 0 01-6.164-10.413l-.038-.067c0-.002-.002-.004-.003-.005l-.195-.35a260.52 260.52 0 01-5.784-10.984zm-18.015-46.566l9.61-2.763a273.606 273.606 0 007.674 22.854l-9.329 3.603-.007-.02-.019-.049-.013-.034-.022-.056-.01-.028-.024-.062a4.5 4.5 0 00-.01-.026l-.024-.06c-.002-.008-.007-.019-.01-.026l-.03-.078-.001-.004-.371-.972-.003-.007a277.729 277.729 0 01-1.559-4.206l-.03-.086-.004-.01-.03-.084-.002-.002-.031-.087-.002-.004c-.13-.362-.26-.724-.388-1.087l-.001-.001-.032-.089-.001-.004-.029-.08-.008-.023-.025-.07-.004-.014-.028-.077-.004-.014-.029-.08-.003-.008-.026-.075-.008-.023-.024-.066-.008-.024-.023-.066-.009-.024a40.545 40.545 0 01-.032-.09l-.022-.064-.01-.027-.023-.068-.008-.02-.027-.079-.004-.009-.028-.082-.004-.01-.027-.076-.005-.015-.029-.082-.002-.008-.03-.086-.002-.005-.032-.09-.012-.035a19.892 19.892 0 01-.018-.054l-.017-.046-.015-.044-.01-.031-.022-.061-.01-.03-.02-.057-.015-.042-.016-.047-.017-.049-.014-.039-.017-.05-.014-.04-.018-.053-.012-.034a18.428 18.428 0 01-.02-.058l-.01-.028a26.698 26.698 0 01-.022-.063l-.009-.027-.02-.057a7.862 7.862 0 00-.011-.034l-.02-.06a3.862 3.862 0 00-.01-.026l-.021-.062-.009-.025-.024-.07-.004-.011-.026-.076-.005-.014c-1.543-4.492-3-9.104-4.36-13.834zm-9.711-48.988l9.935-1.136a299.02 299.02 0 003.713 23.894l-9.81 1.938a307.87 307.87 0 01-3.838-24.696zm-1.862-49.923l9.993.364c-.296 8.134-.299 16.3-.007 24.269l-9.994.365c-.02-.549-.038-1.091-.056-1.643v-.021l-.003-.082-.001-.035a29.546 29.546 0 01-.006-.185v-.032l-.004-.102-.001-.042-.002-.06-.002-.054-.001-.053-.002-.054-.001-.043-.002-.067v-.026l-.008-.255v-.014l-.003-.08v-.02l-.003-.08v-.02l-.002-.08v-.015a343.484 343.484 0 01.105-21.935zm5.202-49.685l9.857 1.683a381.803 381.803 0 00-3.337 24.12l-9.945-1.05c.088-.836.178-1.663.272-2.503l.003-.02.012-.112v-.006l.015-.122v-.011l.013-.104.003-.03a144.878 144.878 0 01.013-.116l.013-.114a3.71 3.71 0 00.003-.027l.01-.083.005-.049.008-.066.005-.047.008-.066.011-.099.005-.046.008-.064.005-.043.008-.068.002-.024.018-.155.002-.018.01-.083.003-.021.031-.27v-.005l.011-.09.001-.009c.168-1.429.345-2.863.53-4.303v-.003l.038-.284v-.004l.012-.088.002-.019.036-.274v-.003l.012-.09.002-.014.036-.276v-.006l.012-.082.004-.032.033-.249.004-.028.009-.07.005-.04.01-.075.001-.01.02-.152.006-.04.009-.062.007-.06.007-.05.01-.078.01-.066.01-.076.006-.047.01-.067a19.336 19.336 0 00.02-.154l.001-.01.015-.109.006-.04.01-.08.006-.04.012-.086.005-.04.014-.103.004-.029.013-.094.004-.026c.012-.086.02-.154.033-.24l.002-.017.016-.115v-.005l.036-.254c.006-.044.01-.079.017-.121l.002-.013c.554-3.978 1.177-8 1.87-12.058zm11.297-48.678l9.6 2.803a444.437 444.437 0 00-6.208 23.64l-9.74-2.268c.346-1.483.701-2.972 1.065-4.465l.003-.01.043-.178.001-.004.046-.185v-.002l.04-.165.01-.042.035-.139.008-.035.04-.162.014-.057.027-.107.017-.071.025-.099.03-.126.021-.084.024-.093.016-.067.024-.096.012-.048.05-.202.01-.041.029-.116.007-.029a571.176 571.176 0 01.1-.397 458.002 458.002 0 014.651-17.155zm16.414-47.22l9.277 3.732a519.187 519.187 0 00-8.62 22.964l-9.444-3.29c.725-2.082 1.47-4.176 2.232-6.275l.008-.022.04-.109.02-.057.036-.1.026-.07.032-.087.036-.1.037-.102.044-.12.023-.064.037-.102c.01-.024.016-.044.025-.068l.041-.112.019-.052.06-.162v-.004l.065-.175.008-.023.056-.152.01-.029.059-.158.004-.013.198-.537.004-.012a537.26 537.26 0 015.667-14.701zm20.629-45.52l8.932 4.497a610.193 610.193 0 00-10.616 22.176l-9.106-4.133a505.438 505.438 0 011.751-3.823l.023-.051.052-.11.034-.075.038-.082.042-.09.034-.073.043-.095.027-.056.052-.113.012-.026a627.103 627.103 0 018.682-17.946zm24.153-43.78l8.539 5.205a442.85 442.85 0 00-5.453 9.193 702.194 702.194 0 00-6.825 12.101l-8.759-4.825c.791-1.435 1.586-2.866 2.393-4.307l.014-.025.07-.126.034-.06.062-.11.04-.072.055-.098.073-.13.035-.062.09-.158.027-.05.075-.133.028-.05.081-.144.018-.033.1-.176v-.001c1.15-2.04 2.315-4.086 3.498-6.14l.013-.023.096-.165.013-.024.108-.187.094-.163.032-.054.061-.107.04-.069.054-.094.042-.07c.017-.032.034-.06.052-.091l.044-.076a64.277 64.277 0 01.094-.162l.054-.094.047-.08.082-.141.046-.08.046-.08.05-.084.044-.077.05-.084.044-.076.05-.086.042-.073.052-.09.038-.064.055-.095.009-.015.134-.23.037-.061.054-.094.039-.065.053-.092.04-.069.054-.09.04-.068.053-.091.038-.066.056-.095.023-.04.117-.198.04-.067.05-.086.044-.074.05-.084.044-.075.049-.084.046-.078.048-.08.048-.082.045-.077.06-.102.034-.056.092-.156.031-.053.064-.107.035-.06.06-.102.038-.062.059-.1.035-.06.065-.109.03-.05.085-.143.01-.015.098-.167.006-.009a206.41 206.41 0 01.109-.183l.08-.134.02-.033.08-.136.016-.026.088-.147.009-.015a444.346 444.346 0 011.947-3.225zm28.668-40.92l7.763 6.303c-4.934 6.078-9.84 12.604-14.581 19.397l-8.201-5.723a361.25 361.25 0 016.313-8.766l.011-.016.096-.128.011-.015.096-.129.011-.015.085-.114.017-.023a98.813 98.813 0 01.187-.25l.039-.052.07-.095.04-.052.052-.07.062-.083.04-.052.072-.097a20.568 20.568 0 00.128-.17l.016-.021.173-.23.002-.004.113-.15a329.908 329.908 0 017.385-9.446zm19.802-22.039l7.071 7.071-3.129 3.185-7.194-6.946c.809-.837 1.619-1.665 2.43-2.484l.097-.098.1-.1.101-.102.103-.104.105-.105.105-.105.106-.106.105-.106z" fill="#ffe1c8"/></g></g><g filter="url(#b)"><g data-name="Tracé 4" fill="none" opacity=".3"><path d="M669.139 927.651C400.4 955.96 374.573 735.488 402.306 560.388S575.032 185.796 769.57 293.555s272.247 243.588 266.833 367.264c-13.61 85.928-98.526 238.523-367.263 266.832z"/><path d="M576.453 911.581c27.049 4.284 57.704 4.672 91.114 1.152 234.861-24.74 337.335-151.776 353.885-253.425 5.358-131.876-86.64-257.074-259.15-352.632-24.726-13.695-49.454-22.57-73.499-26.379-152.706-24.186-250.8 150.6-271.682 282.437-18.673 117.901-22.805 320 159.332 348.847m-2.347 14.816c-179.664-28.457-195.835-214.26-171.8-366.01 27.733-175.1 172.726-374.591 367.264-266.832 194.537 107.76 272.246 243.588 266.832 367.263-13.61 85.93-98.526 238.524-367.263 266.833-35.84 3.775-67.385 3.124-95.033-1.254z" fill="#ffe1c8"/></g></g><g filter="url(#c)"><path data-name="Profile pic" d="M603.16 222.69c261-70 321 143.717 321 321s-112 397-321 321-307-198-321-321c0-87 60-251 321-321z" fill="#ffe1c8"/></g></svg>